<svg width="188" height="46" viewBox="0 0 188 46" fill="none" xmlns="http://www.w3.org/2000/svg">
<path d="M77.9798 25.9596H73.8788L72.1111 16.697C71.8283 15.4243 71.6869 13.9394 71.5455 12.2424L71.4747 13.1616L70.9798 16.7677L69.2828 25.9596H65.1818L62 8.28284H65.1818L66.7374 18.2525C66.8788 19.2424 67.0909 20.798 67.3737 22.9192C67.5859 20.7273 67.798 19.2424 67.9394 18.3232L69.8485 8.28284H73.2424L75.1515 18.3232C75.4343 19.8081 75.5758 21.3636 75.7172 22.9899C76 20.5859 76.2121 19.0303 76.3535 18.2525L77.9091 8.28284H81.1616L77.9798 25.9596Z" fill="#3858E9"/>
<path d="M92.5454 13.7273C92.5454 15.6364 92.0504 17.0505 91.1312 18.0404C90.212 19.0303 88.7979 19.5253 87.0302 19.5253H86.1817V25.9596H82.9292V8.28284H87.3837C90.8484 8.28284 92.5454 10.0505 92.5454 13.7273ZM86.1817 16.697H86.8181C87.5959 16.697 88.2322 16.4849 88.5858 16.0606C89.01 15.6364 89.1514 14.8586 89.1514 13.8687C89.1514 12.9495 88.9393 12.2424 88.5858 11.8182C88.2322 11.3939 87.6666 11.1818 86.8888 11.1818H86.111V16.697H86.1817Z" fill="#3858E9"/>
<path d="M100.111 16.1313H105.485V25.1818C103.93 25.8182 102.303 26.1717 100.606 26.1717C98.5558 26.1717 97.0003 25.3939 95.8689 23.8384C94.7376 22.2828 94.2427 20.0202 94.2427 17.0505C94.2427 14.2222 94.879 12.0303 96.1518 10.404C97.4245 8.77778 99.1922 8 101.455 8C102.869 8 104.212 8.35354 105.485 9.06061L104.424 11.7475C103.435 11.1818 102.515 10.899 101.596 10.899C100.323 10.899 99.3336 11.4646 98.6265 12.596C97.9194 13.7273 97.5659 15.2121 97.5659 17.1919C97.5659 19.1717 97.8487 20.7273 98.3437 21.7172C98.8386 22.7778 99.6164 23.2727 100.677 23.2727C101.243 23.2727 101.738 23.202 102.303 23.0606V19.0303H100.111V16.1313Z" fill="#3D3935"/>
<path d="M111.495 19.0303V25.8889H108.242V8.2121H112.555C114.394 8.2121 115.737 8.63634 116.586 9.48483C117.434 10.3333 117.858 11.6767 117.858 13.4444C117.858 15.707 117.081 17.2626 115.596 18.1111L118.99 25.8889H115.454L112.697 19.0303H111.495ZM111.495 16.202H112.343C113.121 16.202 113.687 15.9899 114.04 15.5656C114.394 15.1414 114.535 14.505 114.535 13.5858C114.535 12.6666 114.323 12.0303 113.969 11.6767C113.616 11.3232 113.05 11.1111 112.343 11.1111H111.495V16.202Z" fill="#3D3935"/>
<path d="M128.96 25.9596L127.97 21.505H123.374L122.384 25.9596H119.131L123.515 8.2121H127.97L132.354 25.9596H128.96ZM127.333 18.5353L126.414 14.4343C126.343 14.1515 126.202 13.5858 126.061 12.5252C125.849 11.5353 125.778 10.8283 125.707 10.5454C125.636 11.2525 125.495 12.0303 125.283 12.8081C125.141 13.6565 124.717 15.5656 124.01 18.5353H127.333Z" fill="#3D3935"/>
<path d="M146.141 25.9596H142.111L136.667 13.1616H136.525C136.737 14.1515 136.808 15.2121 136.808 16.2727V25.9596H133.768V8.28284H137.798L143.242 20.9394H143.384C143.242 20.0909 143.172 19.101 143.172 17.899V8.28284H146.212V25.9596H146.141Z" fill="#3D3935"/>
<path d="M157.667 25.9596L156.677 21.505H152.081L151.091 25.9596H147.838L152.222 8.2121H156.677L161.061 25.9596H157.667ZM156.04 18.5353L155.121 14.4343C155.051 14.1515 154.909 13.5858 154.768 12.5252C154.556 11.5353 154.485 10.8283 154.414 10.5454C154.343 11.2525 154.202 12.0303 153.99 12.8081C153.848 13.6565 153.424 15.5656 152.717 18.5353H156.04Z" fill="#3D3935"/>
<path d="M173.717 16.9091C173.717 19.8081 173.151 22.0707 171.949 23.6263C170.747 25.1818 169.05 25.9596 166.788 25.9596H162.475V8.28284H167.212C169.262 8.28284 170.889 9.06062 172.02 10.5455C173.151 12.0303 173.717 14.2222 173.717 16.9091ZM170.394 17.0505C170.394 13.0909 169.333 11.1111 167.141 11.1111H165.798V23.0606H166.858C168.06 23.0606 168.98 22.5657 169.545 21.5758C170.111 20.5152 170.394 19.0303 170.394 17.0505Z" fill="#3D3935"/>
<path d="M184.677 25.9596L183.687 21.505H179.091L178.101 25.9596H174.778L179.162 8.2121H183.616L188 25.9596H184.677ZM183.051 18.5353L182.131 14.4343C182.061 14.1515 181.919 13.5858 181.778 12.5252C181.566 11.5353 181.495 10.8283 181.424 10.5454C181.354 11.2525 181.212 12.0303 181 12.8081C180.859 13.6565 180.434 15.5656 179.727 18.5353H183.051Z" fill="#3D3935"/>
<path d="M67.798 37.9798C67.3031 37.9798 66.8788 37.9091 66.5253 37.697C66.1718 37.4848 65.8182 37.2727 65.5354 36.9192C65.2526 36.5657 65.0405 36.2121 64.8283 35.7172C64.6869 35.2222 64.6162 34.7273 64.6162 34.0909C64.6162 33.5253 64.6869 32.9596 64.899 32.4647C65.0405 31.9697 65.3233 31.6162 65.6061 31.2626C65.8889 30.9091 66.2425 30.697 66.6667 30.4849C67.091 30.2727 67.5152 30.202 68.0102 30.202C68.4344 30.202 68.8586 30.2727 69.2122 30.4849C69.5657 30.697 69.8485 30.9091 70.0607 31.1212L69.5657 31.7576C69.3536 31.5455 69.1415 31.404 68.9293 31.2626C68.6465 31.1212 68.3637 31.0505 68.0809 31.0505C67.7273 31.0505 67.3738 31.1212 67.091 31.2626C66.8081 31.404 66.5253 31.6162 66.3839 31.8283C66.1718 32.1111 66.0304 32.3939 65.8889 32.7475C65.7475 33.101 65.7475 33.5253 65.7475 34.0202C65.7475 34.5152 65.8182 34.9394 65.8889 35.2929C66.0304 35.6465 66.1718 36 66.3132 36.2828C66.5253 36.5657 66.7374 36.7778 67.0202 36.9192C67.3031 37.0606 67.6566 37.1313 68.0102 37.1313C68.3637 37.1313 68.7172 37.0606 68.9293 36.9192C69.2122 36.7778 69.4243 36.5657 69.7071 36.2828L70.2021 36.8485C69.9192 37.202 69.5657 37.4849 69.2122 37.6263C68.7172 37.9091 68.293 37.9798 67.798 37.9798Z" fill="#3D3935"/>
<path d="M73.8787 37.9798C73.3837 37.9798 72.9595 37.9091 72.606 37.697C72.2524 37.4848 71.8989 37.2727 71.6161 36.9192C71.3332 36.5657 71.1211 36.1414 70.9797 35.7172C70.8383 35.2222 70.7676 34.7273 70.7676 34.0909C70.7676 33.4546 70.8383 32.9596 70.9797 32.4647C71.1211 31.9697 71.3332 31.6162 71.6161 31.2626C71.8989 30.9091 72.2524 30.697 72.606 30.4849C72.9595 30.3434 73.4544 30.202 73.8787 30.202C74.3029 30.202 74.7979 30.2727 75.1514 30.4849C75.505 30.6263 75.8585 30.9091 76.1413 31.2626C76.4241 31.6162 76.6363 31.9697 76.7777 32.4647C76.9191 32.9596 76.9898 33.4545 76.9898 34.0202C76.9898 34.5859 76.9191 35.1515 76.7777 35.6465C76.6363 36.1414 76.4241 36.5657 76.1413 36.8485C75.8585 37.1313 75.505 37.4141 75.1514 37.6263C74.7979 37.9091 74.3736 37.9798 73.8787 37.9798ZM73.8787 37.1313C74.2322 37.1313 74.5151 37.0606 74.7979 36.9192C75.0807 36.7778 75.2928 36.5657 75.505 36.2828C75.7171 36 75.8585 35.7172 75.9292 35.2929C75.9999 34.9394 76.0706 34.5152 76.0706 34.0202C76.0706 33.5253 75.9999 33.1717 75.9292 32.7475C75.7878 32.3939 75.6464 32.0404 75.505 31.8283C75.3635 31.6162 75.0807 31.404 74.7979 31.2626C74.5151 31.1212 74.2322 31.0505 73.8787 31.0505C73.5252 31.0505 73.2423 31.1212 72.9595 31.2626C72.6767 31.404 72.4645 31.6162 72.2524 31.8283C72.0403 32.0404 71.8989 32.3939 71.8282 32.7475C71.7575 33.101 71.6868 33.5253 71.6868 34.0202C71.6868 34.5152 71.7575 34.9394 71.8282 35.2929C71.9696 35.6465 72.111 36 72.2524 36.2828C72.4645 36.5657 72.6767 36.7778 72.9595 36.9192C73.2423 37.0606 73.5252 37.1313 73.8787 37.1313Z" fill="#3D3935"/>
<path d="M78.6162 37.8384V30.4141H79.7475L81.1617 34.3737C81.2324 34.6566 81.3738 34.8687 81.4445 35.1515C81.5152 35.4344 81.5859 35.6465 81.7273 35.9293H81.798C81.8687 35.6465 81.9394 35.4344 82.0809 35.1515C82.1516 34.8687 82.2223 34.6566 82.3637 34.3737L83.7778 30.4141H84.9091V37.8384H84.0607V33.7374C84.0607 33.3838 84.0607 33.0303 84.1314 32.6061C84.2021 32.1818 84.2021 31.8283 84.2021 31.4747H84.1314L83.5657 33.1717L82.1516 36.9899H81.4445L80.0304 33.1717L79.4647 31.4747H79.394C79.394 31.8283 79.4647 32.1818 79.4647 32.6061C79.4647 33.0303 79.5354 33.3838 79.5354 33.7374V37.8384H78.6162Z" fill="#3D3935"/>
<path d="M89.5052 37.9798C89.1517 37.9798 88.7982 37.9091 88.4446 37.8384C88.0911 37.697 87.8083 37.5556 87.5961 37.2727C87.384 36.9899 87.1719 36.7071 87.0305 36.2828C86.8891 35.8586 86.8184 35.3636 86.8184 34.798V30.4141H87.8083V34.798C87.8083 35.2222 87.879 35.6465 87.9497 35.9293C88.0204 36.2121 88.1618 36.4949 88.3032 36.6364C88.4446 36.7778 88.6567 36.9192 88.8689 37.0606C89.081 37.1313 89.2931 37.202 89.5759 37.202C89.8588 37.202 90.0709 37.1313 90.283 37.0606C90.4951 36.9899 90.7073 36.8485 90.8487 36.6364C90.9901 36.4242 91.1315 36.2121 91.2022 35.9293C91.2729 35.6465 91.3436 35.2222 91.3436 34.798V30.4141H92.2628V34.798C92.2628 35.3636 92.1921 35.9293 92.0507 36.2828C91.9093 36.6364 91.6971 36.9899 91.485 37.2727C91.2729 37.5556 90.9901 37.697 90.6365 37.8384C90.283 37.9798 89.8588 37.9798 89.5052 37.9798Z" fill="#3D3935"/>
<path d="M94.1719 37.8384V30.4141H95.1618L97.8486 35.0808L98.6264 36.6364H98.6971C98.6971 36.2828 98.6264 35.8586 98.6264 35.4343C98.6264 35.0101 98.5557 34.6566 98.5557 34.2323V30.4141H99.4749V37.8384H98.485L95.7981 33.1717L95.0204 31.6162H94.9497C94.9497 31.9697 95.0204 32.3939 95.0204 32.7475C95.0204 33.101 95.0911 33.5253 95.0911 33.9495V37.8384H94.1719Z" fill="#3D3935"/>
<path d="M101.525 37.8384V30.4141H102.445V37.8384H101.525Z" fill="#3D3935"/>
<path d="M104.495 37.8384V30.4141H106.333C107.465 30.4141 108.384 30.697 108.95 31.3333C109.515 31.9697 109.869 32.8889 109.869 34.0909C109.869 34.6566 109.798 35.2222 109.657 35.6465C109.515 36.1414 109.303 36.495 109.02 36.8485C108.738 37.202 108.384 37.4141 107.96 37.5556C107.536 37.697 107.041 37.8384 106.475 37.8384H104.495ZM105.414 37.0606H106.263C107.111 37.0606 107.748 36.7778 108.243 36.2828C108.667 35.7879 108.879 35.0101 108.879 34.0909C108.879 33.1717 108.667 32.3939 108.243 31.899C107.818 31.404 107.182 31.1212 106.263 31.1212H105.414V37.0606Z" fill="#3D3935"/>
<path d="M110.293 37.8384L112.838 30.4141H113.899L116.444 37.8384H115.384L114.677 35.5758H111.99L111.283 37.8384H110.293ZM112.556 33.6667L112.202 34.798H114.465L114.111 33.6667C113.97 33.2424 113.828 32.8182 113.758 32.3939C113.616 31.9697 113.545 31.5455 113.404 31.1212H113.333C113.192 31.5455 113.121 31.9697 112.98 32.3939C112.838 32.8889 112.697 33.2424 112.556 33.6667Z" fill="#3D3935"/>
<path d="M117.435 37.8384V30.4141H119.273C120.404 30.4141 121.323 30.697 121.889 31.3333C122.455 31.9697 122.808 32.8889 122.808 34.0909C122.808 34.6566 122.738 35.2222 122.596 35.6465C122.455 36.1414 122.243 36.495 121.96 36.8485C121.677 37.202 121.323 37.4141 120.899 37.5556C120.475 37.697 119.98 37.8384 119.414 37.8384H117.435ZM118.424 37.0606H119.273C120.121 37.0606 120.758 36.7778 121.253 36.2828C121.677 35.7879 121.889 35.0101 121.889 34.0909C121.889 33.1717 121.677 32.3939 121.253 31.899C120.829 31.404 120.192 31.1212 119.273 31.1212H118.424V37.0606Z" fill="#3D3935"/>
<path d="M127.475 37.8384L125.919 30.4141H126.909L127.687 34.4445C127.758 34.8687 127.829 35.2222 127.899 35.6465C127.97 36.0707 128.041 36.4242 128.111 36.8485H128.182C128.253 36.4242 128.323 36.0707 128.465 35.6465C128.536 35.2222 128.606 34.8687 128.748 34.4445L129.808 30.4141H130.657L131.717 34.4445C131.788 34.8687 131.93 35.2222 132 35.6465C132.071 36.0707 132.212 36.4242 132.283 36.8485H132.354C132.424 36.4242 132.495 36.0707 132.566 35.6465C132.637 35.2222 132.707 34.8687 132.778 34.4445L133.556 30.4141H134.475L132.919 37.8384H131.647L130.515 33.3838C130.445 33.101 130.374 32.8182 130.303 32.5354C130.233 32.2525 130.162 31.9697 130.162 31.6869H130.091C130.02 31.9697 129.95 32.2525 129.879 32.5354C129.808 32.8182 129.738 33.101 129.667 33.3838L128.536 37.8384H127.475Z" fill="#3D3935"/>
<path d="M138.222 37.9798C137.727 37.9798 137.303 37.9091 136.95 37.697C136.596 37.4848 136.243 37.2727 135.96 36.9192C135.677 36.5657 135.465 36.1414 135.323 35.7172C135.182 35.2222 135.111 34.7273 135.111 34.0909C135.111 33.4546 135.182 32.9596 135.323 32.4647C135.465 31.9697 135.677 31.6162 135.96 31.2626C136.243 30.9091 136.596 30.697 136.95 30.4849C137.303 30.3434 137.798 30.202 138.222 30.202C138.647 30.202 139.142 30.2727 139.495 30.4849C139.849 30.6263 140.202 30.9091 140.485 31.2626C140.768 31.6162 140.98 31.9697 141.121 32.4647C141.263 32.9596 141.334 33.4545 141.334 34.0202C141.334 34.5859 141.263 35.1515 141.121 35.6465C140.98 36.1414 140.768 36.5657 140.485 36.8485C140.202 37.1313 139.849 37.4141 139.495 37.6263C139.142 37.9091 138.717 37.9798 138.222 37.9798ZM138.222 37.1313C138.576 37.1313 138.859 37.0606 139.142 36.9192C139.424 36.7778 139.637 36.5657 139.849 36.2828C140.061 36 140.202 35.7172 140.273 35.2929C140.344 34.9394 140.414 34.5152 140.414 34.0202C140.414 33.5253 140.344 33.1717 140.273 32.7475C140.132 32.3939 139.99 32.0404 139.849 31.8283C139.707 31.6162 139.424 31.404 139.142 31.2626C138.859 31.1212 138.576 31.0505 138.222 31.0505C137.869 31.0505 137.586 31.1212 137.303 31.2626C137.02 31.404 136.808 31.6162 136.596 31.8283C136.384 32.0404 136.243 32.3939 136.172 32.7475C136.101 33.101 136.031 33.5253 136.031 34.0202C136.031 34.5152 136.101 34.9394 136.172 35.2929C136.313 35.6465 136.455 36 136.596 36.2828C136.808 36.5657 137.02 36.7778 137.303 36.9192C137.586 37.0606 137.94 37.1313 138.222 37.1313Z" fill="#3D3935"/>
<path d="M143.03 37.8384V30.4141H145.364C145.717 30.4141 146.071 30.4849 146.424 30.5556C146.778 30.6263 146.99 30.7677 147.273 30.9091C147.485 31.0505 147.697 31.2626 147.838 31.5455C147.98 31.8283 148.05 32.1111 148.05 32.5354C148.05 33.101 147.909 33.596 147.626 33.9495C147.343 34.303 146.919 34.5151 146.424 34.6566L148.333 37.9091H147.273L145.505 34.798H144.162V37.9091H143.03V37.8384ZM143.949 33.9495H145.222C145.788 33.9495 146.283 33.8081 146.566 33.596C146.848 33.3838 147.061 33.0303 147.061 32.5354C147.061 32.0404 146.919 31.6869 146.566 31.4747C146.212 31.2626 145.788 31.1919 145.222 31.1919H143.949V33.9495Z" fill="#3D3935"/>
<path d="M149.465 37.8384V30.4141H151.303C152.435 30.4141 153.354 30.697 153.919 31.3333C154.485 31.9697 154.839 32.8889 154.839 34.0909C154.839 34.6566 154.768 35.2222 154.626 35.6465C154.485 36.1414 154.273 36.495 153.99 36.8485C153.707 37.202 153.354 37.4141 152.929 37.5556C152.505 37.697 152.01 37.8384 151.445 37.8384H149.465ZM150.384 37.0606H151.233C152.081 37.0606 152.717 36.7778 153.212 36.2828C153.637 35.7879 153.849 35.0101 153.849 34.0909C153.849 33.1717 153.637 32.3939 153.212 31.899C152.788 31.404 152.152 31.1212 151.233 31.1212H150.384V37.0606Z" fill="#3D3935"/>
<path d="M156.394 37.8384V30.4141H158.515C158.939 30.4141 159.293 30.4849 159.647 30.5556C160 30.6263 160.283 30.7677 160.495 30.9091C160.707 31.0505 160.919 31.3333 161.061 31.6162C161.202 31.899 161.273 32.2525 161.273 32.6768C161.273 33.101 161.202 33.3838 161.061 33.6667C160.919 33.9495 160.707 34.1616 160.495 34.3737C160.283 34.5859 160 34.7273 159.647 34.798C159.293 34.8687 158.939 34.9394 158.515 34.9394H157.313V37.9091H156.394V37.8384ZM157.384 34.0909H158.515C159.152 34.0909 159.647 33.9495 159.929 33.7374C160.212 33.5253 160.424 33.101 160.424 32.6061C160.424 32.0404 160.283 31.6869 159.929 31.4747C159.576 31.2626 159.081 31.1919 158.445 31.1919H157.384V34.0909Z" fill="#3D3935"/>
<path d="M162.828 37.8384V30.4141H165.161C165.515 30.4141 165.869 30.4849 166.222 30.5556C166.576 30.6263 166.788 30.7677 167.071 30.9091C167.283 31.0505 167.495 31.2626 167.636 31.5455C167.778 31.8283 167.848 32.1111 167.848 32.5354C167.848 33.101 167.707 33.596 167.424 33.9495C167.141 34.303 166.717 34.5151 166.222 34.6566L168.131 37.9091H167.071L165.303 34.798H163.959V37.9091H162.828V37.8384ZM163.747 33.9495H165.02C165.586 33.9495 166.01 33.8081 166.363 33.596C166.717 33.3838 166.858 33.0303 166.858 32.5354C166.858 32.0404 166.717 31.6869 166.363 31.4747C166.01 31.2626 165.586 31.1919 165.02 31.1919H163.747V33.9495Z" fill="#3D3935"/>
<path d="M169.263 37.8384V30.4141H173.505V31.1919H170.182V33.5253H173.01V34.303H170.182V36.9899H173.647V37.7677H169.263V37.8384Z" fill="#3D3935"/>
<path d="M177.252 37.9798C176.758 37.9798 176.263 37.9091 175.838 37.697C175.414 37.4849 174.99 37.202 174.707 36.9192L175.273 36.2828C175.556 36.5657 175.838 36.7778 176.192 36.9899C176.545 37.1313 176.899 37.2727 177.323 37.2727C177.818 37.2727 178.172 37.1313 178.455 36.9192C178.737 36.7071 178.879 36.4242 178.879 36.0707C178.879 35.8586 178.879 35.7172 178.808 35.5758C178.737 35.4344 178.667 35.3636 178.525 35.2222C178.384 35.1515 178.313 35.0101 178.101 34.9394C177.889 34.8687 177.818 34.798 177.606 34.7273L176.545 34.2323C176.404 34.1616 176.192 34.0909 175.98 33.9495C175.768 33.8081 175.626 33.7374 175.485 33.596C175.343 33.4545 175.202 33.2424 175.131 33.0303C175.061 32.8182 174.99 32.6061 174.99 32.3232C174.99 32.0404 175.061 31.7576 175.131 31.5455C175.273 31.3333 175.414 31.1212 175.626 30.9091C175.838 30.7677 176.05 30.6263 176.333 30.4849C176.616 30.4141 176.899 30.3434 177.252 30.3434C177.677 30.3434 178.101 30.4141 178.455 30.6263C178.808 30.8384 179.162 31.0505 179.444 31.2626L178.949 31.899C178.737 31.6869 178.455 31.4748 178.172 31.4041C177.889 31.2626 177.606 31.1919 177.252 31.1919C176.828 31.1919 176.475 31.2626 176.263 31.4748C175.98 31.6869 175.909 31.899 175.909 32.2525C175.909 32.4647 175.909 32.6061 176.05 32.6768C176.192 32.7475 176.192 32.8889 176.333 33.0303C176.475 33.101 176.616 33.2424 176.758 33.3131C176.899 33.3838 177.04 33.4546 177.182 33.5253L178.242 33.9495C178.455 34.0202 178.667 34.1616 178.808 34.2323C179.02 34.3737 179.162 34.5152 179.303 34.6566C179.444 34.798 179.515 35.0101 179.657 35.2222C179.727 35.4344 179.798 35.6465 179.798 35.9293C179.798 36.2121 179.727 36.495 179.657 36.7778C179.515 37.0606 179.374 37.2727 179.162 37.4849C178.949 37.697 178.667 37.8384 178.384 37.9091C178.101 37.9798 177.677 37.9798 177.252 37.9798Z" fill="#3D3935"/>
<path d="M183.192 37.9798C182.697 37.9798 182.202 37.9091 181.778 37.697C181.354 37.4849 180.929 37.202 180.646 36.9192L181.212 36.2828C181.495 36.5657 181.778 36.7778 182.131 36.9899C182.485 37.1313 182.838 37.2727 183.263 37.2727C183.758 37.2727 184.111 37.1313 184.394 36.9192C184.677 36.7071 184.818 36.4242 184.818 36.0707C184.818 35.8586 184.818 35.7172 184.747 35.5758C184.677 35.4344 184.606 35.3636 184.465 35.2222C184.323 35.1515 184.253 35.0101 184.04 34.9394C183.828 34.8687 183.758 34.798 183.545 34.7273L182.485 34.2323C182.343 34.1616 182.131 34.0909 181.919 33.9495C181.707 33.8081 181.566 33.7374 181.424 33.596C181.283 33.4545 181.141 33.2424 181.071 33.0303C181 32.8182 180.929 32.6061 180.929 32.3232C180.929 32.0404 181 31.7576 181.071 31.5455C181.212 31.3333 181.354 31.1212 181.566 30.9091C181.778 30.7677 181.99 30.6263 182.273 30.4849C182.556 30.4141 182.838 30.3434 183.192 30.3434C183.616 30.3434 184.04 30.4141 184.394 30.6263C184.747 30.8384 185.101 31.0505 185.384 31.2626L184.889 31.899C184.677 31.6869 184.394 31.4748 184.111 31.4041C183.828 31.2626 183.545 31.1919 183.192 31.1919C182.768 31.1919 182.414 31.2626 182.202 31.4748C181.919 31.6869 181.849 31.899 181.849 32.2525C181.849 32.4647 181.849 32.6061 181.99 32.6768C182.131 32.7475 182.131 32.8889 182.273 33.0303C182.414 33.101 182.556 33.2424 182.697 33.3131C182.838 33.3838 182.98 33.4546 183.121 33.5253L184.182 33.9495C184.394 34.0202 184.606 34.1616 184.747 34.2323C184.96 34.3737 185.101 34.5152 185.242 34.6566C185.384 34.798 185.455 35.0101 185.596 35.2222C185.667 35.4344 185.737 35.6465 185.737 35.9293C185.737 36.2121 185.667 36.495 185.596 36.7778C185.455 37.0606 185.313 37.2727 185.101 37.4849C184.889 37.697 184.606 37.8384 184.323 37.9091C184.04 37.9798 183.545 37.9798 183.192 37.9798Z" fill="#3D3935"/>
<path d="M3.26953 22.9987C3.26953 30.8083 7.80807 37.5574 14.3893 40.7556L4.97773 14.969C3.88298 17.4228 3.26953 20.1383 3.26953 22.9987Z" fill="#3858E9"/>
<path d="M36.3186 22.0031C36.3186 19.5647 35.4427 17.876 34.6915 16.5616C33.6914 14.9364 32.7539 13.5601 32.7539 11.9349C32.7539 10.1212 34.1295 8.43286 36.0671 8.43286C36.1545 8.43286 36.2375 8.44375 36.3227 8.44863C32.8125 5.23272 28.1358 3.26923 22.9992 3.26923C16.1063 3.26923 10.0421 6.80576 6.51416 12.1624C6.97706 12.1762 7.41331 12.186 7.78386 12.186C9.84758 12.186 13.0421 11.9356 13.0421 11.9356C14.1057 11.8729 14.2311 13.4351 13.1686 13.5608C13.1686 13.5608 12.0998 13.6866 10.9104 13.7489L18.0953 35.1201L22.4131 22.1705L19.3391 13.7482C18.2767 13.6858 17.2702 13.5601 17.2702 13.5601C16.2069 13.4978 16.3316 11.8722 17.3948 11.9349C17.3948 11.9349 20.6531 12.1853 22.5918 12.1853C24.6552 12.1853 27.8501 11.9349 27.8501 11.9349C28.9144 11.8722 29.0394 13.4343 27.9766 13.5601C27.9766 13.5601 26.9055 13.6858 25.7184 13.7482L32.8485 34.9576L34.8165 28.3812C35.6695 25.6522 36.3186 23.6921 36.3186 22.0031Z" fill="#3858E9"/>
<path d="M23.3455 24.7245L17.4258 41.9262C19.1933 42.4458 21.0625 42.73 22.9994 42.73C25.297 42.73 27.5004 42.3328 29.5513 41.6116C29.4984 41.5272 29.4503 41.4374 29.4109 41.3398L23.3455 24.7245Z" fill="#3858E9"/>
<path d="M40.312 13.5327C40.3969 14.1611 40.4449 14.8358 40.4449 15.5615C40.4449 17.5636 40.071 19.8143 38.9447 22.6285L32.918 40.0532C38.7836 36.6327 42.729 30.2779 42.729 22.9991C42.7294 19.5688 41.8531 16.3431 40.312 13.5327Z" fill="#3858E9"/>
<path d="M22.9994 0C10.3179 0 0 10.3171 0 22.9987C0 35.6817 10.3179 45.9985 22.9994 45.9985C35.6806 45.9985 46 35.6817 46 22.9987C45.9996 10.3171 35.6806 0 22.9994 0ZM22.9994 44.9443C10.8994 44.9443 1.05458 35.0995 1.05458 22.9987C1.05458 10.8987 10.899 1.05458 22.9994 1.05458C35.0991 1.05458 44.9432 10.8987 44.9432 22.9987C44.9432 35.0995 35.0991 44.9443 22.9994 44.9443Z" fill="#3858E9"/>
</svg>
